<?xml version="1.0" standalone="no"?>
<!DOCTYPE svg PUBLIC "-//W3C//DTD SVG 20010904//EN"
 "http://www.w3.org/TR/2001/REC-SVG-20010904/DTD/svg10.dtd">
<svg version="1.0" xmlns="http://www.w3.org/2000/svg"
 width="360.000000pt" height="360.000000pt" viewBox="0 0 360.000000 360.000000"
 preserveAspectRatio="xMidYMid meet">

<g transform="translate(0.000000,360.000000) scale(0.100000,-0.100000)"
fill="#000000" stroke="none">
<path d="M320 3131 c-74 -5 -58 -7 124 -14 529 -20 984 -96 1355 -229 l95 -34
46 -134 c25 -74 60 -167 77 -207 l31 -72 -58 -40 c-152 -107 -220 -240 -220
-432 0 -152 47 -258 162 -364 117 -109 210 -139 483 -155 340 -20 524 -72 672
-188 146 -116 292 -400 337 -657 l14 -80 1 60 c1 33 -6 99 -14 148 -55 312
-203 544 -426 667 -63 35 -57 37 31 11 277 -79 459 -235 547 -466 l23 -60 -6
45 c-19 148 -114 300 -247 394 -202 143 -446 205 -882 226 -254 11 -335 37
-448 140 -168 154 -181 417 -28 571 71 70 141 99 262 106 143 9 289 -30 553
-146 l129 -57 14 -46 c12 -43 17 -47 103 -93 49 -26 111 -68 137 -94 l48 -46
47 35 48 35 -44 15 c-57 20 -128 70 -122 86 3 7 -15 43 -40 80 -24 38 -44 72
-44 76 0 5 -20 8 -45 7 -41 -3 -49 1 -85 36 -22 21 -42 47 -46 57 -8 27 -24
22 -24 -8 0 -25 -1 -26 -22 -12 -13 8 -38 36 -55 62 l-33 48 0 -31 c0 -20 -5
-31 -15 -31 -15 0 -82 62 -102 95 -11 19 -12 18 -12 -9 -1 -21 -5 -27 -16 -22
-113 43 -280 76 -388 76 -47 0 -75 6 -107 23 -82 43 -144 170 -157 324 l-6 73
-44 20 c-196 87 -557 168 -893 200 -136 13 -589 20 -710 11z m2791 -1034 c12
-22 12 -22 -10 -3 -11 11 -21 23 -21 28 0 14 19 -1 31 -25z"/>
<path d="M990 2853 c-273 -26 -655 -101 -850 -167 -53 -19 -65 -20 225 29 554
94 1163 109 1508 39 26 -5 27 -4 21 23 -3 15 -12 33 -18 40 -22 22 -319 43
-591 41 -143 0 -276 -3 -295 -5z"/>
<path d="M1680 2695 c-381 -46 -812 -186 -1145 -373 -101 -56 -205 -122 -193
-122 4 0 47 20 97 45 197 98 542 223 786 284 231 58 512 101 659 101 49 0 57
2 52 16 -3 9 -9 27 -12 40 -6 22 -10 24 -73 23 -36 -1 -113 -7 -171 -14z"/>
<path d="M2600 2559 c132 -71 252 -156 346 -243 52 -48 85 -72 93 -67 17 11
-110 126 -223 203 -81 53 -280 158 -302 158 -5 0 34 -23 86 -51z"/>
</g>
</svg>
